<?xml version="1.0" encoding="UTF-8" standalone="no"?>
<svg
   width="32"
   height="32"
   viewBox="0 0 32 31.999999"
   version="1.1"
   id="svg1"
   xmlns="http://www.w3.org/2000/svg"
   xmlns:svg="http://www.w3.org/2000/svg">
  <defs
     id="defs1" />
  <g
     id="Group-2"
     transform="matrix(0.25729238,0,0,0.25729238,2.9573006,1.4287616)">
    <path
       d="m 62.0866,3.55655 32.681,13.97275 q 0.2024,0.0866 0.4004,0.1829 0.198,0.0964 0.3911,0.2023 0.193,0.106 0.3807,0.2212 0.1876,0.1153 0.3694,0.2396 0.1818,0.1242 0.3573,0.2573 0.1754,0.133 0.3442,0.2745 0.1688,0.1414 0.3304,0.2909 0.1617,0.1496 0.3158,0.3068 0.1541,0.1573 0.3004,0.3219 0.1463,0.1646 0.2843,0.3362 0.138,0.1716 0.2675,0.3497 0.1295,0.1781 0.2501,0.3623 0.1206,0.1843 0.2321,0.3742 0.1115,0.1899 0.2135,0.385 0.1021,0.1952 0.1944,0.3951 0.0924,0.1999 0.1749,0.404 0.0825,0.2042 0.1549,0.4122 0.0724,0.2079 0.1345,0.4192 0.0622,0.2113 0.1139,0.4253 0.0516,0.214 0.0926,0.4304 0.042,0.2163 0.072,0.4343 0.031,0.2181 0.051,0.4374 0.02,0.2193 0.029,0.4393 0.009,0.2201 0.007,0.4403 -0.001,0.2202 -0.014,0.44 -0.012,0.2199 -0.035,0.4389 -0.024,0.219 -0.057,0.4365 -0.034,0.2176 -0.079,0.4333 -0.0441,0.2157 -0.099,0.429 -0.0549,0.2132 -0.1202,0.4235 -0.0653,0.2103 -0.1407,0.4172 -0.0755,0.2068 -0.1611,0.4098 L 76.984,82.7831 q -0.0861,0.2043 -0.1821,0.4041 -0.0961,0.1997 -0.2018,0.3945 -0.1058,0.1949 -0.221,0.3842 -0.1152,0.1894 -0.2396,0.3729 -0.1244,0.1834 -0.2577,0.3606 -0.1333,0.1771 -0.2751,0.3474 -0.1418,0.1704 -0.2919,0.3335 -0.1501,0.1632 -0.308,0.3188 -0.1579,0.1556 -0.3232,0.3032 -0.1654,0.1476 -0.3378,0.2869 -0.1725,0.1393 -0.3516,0.2699 -0.179,0.1306 -0.3643,0.2523 -0.1854,0.1216 -0.3764,0.234 -0.1911,0.1124 -0.3874,0.2153 -0.1964,0.1028 -0.3976,0.1959 -0.2012,0.093 -0.4067,0.1761 -0.2056,0.083 -0.4149,0.1558 -0.2094,0.0728 -0.4221,0.1353 -0.2127,0.0624 -0.4282,0.1142 -0.2155,0.0519 -0.4333,0.0931 -0.2178,0.0412 -0.4374,0.0717 -0.2196,0.0304 -0.4404,0.05 -0.2208,0.0196 -0.4422,0.0282 -0.2215,0.0087 -0.4432,0.0065 Q 68.3784,88.2853 68.1572,88.2722 67.9359,88.259 67.7155,88.235 67.4951,88.211 67.2762,88.1762 67.0573,88.1413 66.8404,88.0958 66.6235,88.0502 66.409,87.994 66.1946,87.9378 65.9832,87.8712 65.7718,87.8045 65.5639,87.7275 65.3561,87.6505 65.1522,87.5633 L 32.4713,73.5906 q -0.2025,-0.0866 -0.4005,-0.1829 -0.198,-0.0964 -0.3911,-0.2023 -0.193,-0.106 -0.3806,-0.2212 -0.1877,-0.1153 -0.3695,-0.2396 -0.1817,-0.1243 -0.3572,-0.2573 -0.1755,-0.133 -0.3443,-0.2745 -0.1687,-0.1414 -0.3304,-0.291 -0.1616,-0.1495 -0.3158,-0.3068 -0.1541,-0.1572 -0.3004,-0.3218 -0.1462,-0.1646 -0.2843,-0.3362 -0.138,-0.1716 -0.2675,-0.3497 -0.1295,-0.1781 -0.2501,-0.3624 -0.1206,-0.1842 -0.2321,-0.3741 -0.1114,-0.1899 -0.2135,-0.385 -0.102,-0.1952 -0.1944,-0.3951 -0.0924,-0.1999 -0.1749,-0.404 -0.0825,-0.2042 -0.1549,-0.4122 -0.0724,-0.2079 -0.1345,-0.4192 -0.0622,-0.2112 -0.1139,-0.4253 -0.0518,-0.214 -0.093,-0.4304 -0.0412,-0.2163 -0.0718,-0.4344 -0.0305,-0.218 -0.0504,-0.4373 -0.0199,-0.2193 -0.029,-0.4394 -0.0092,-0.22 -0.0075,-0.4402 0.0016,-0.2202 0.014,-0.44 0.0124,-0.2199 0.0355,-0.4389 0.0232,-0.219 0.057,-0.4366 0.0338,-0.2176 0.0783,-0.4332 0.0444,-0.2157 0.0993,-0.429 0.0549,-0.2132 0.1202,-0.4235 0.0653,-0.2103 0.1408,-0.4172 0.0755,-0.2068 0.161,-0.4098 L 50.2548,8.3368 Q 50.3409,8.13253 50.437,7.93274 50.533,7.73296 50.6387,7.53814 50.7445,7.34333 50.8597,7.15396 50.9749,6.96458 51.0993,6.78111 51.2237,6.59764 51.357,6.42052 51.4903,6.24339 51.6321,6.07305 51.774,5.9027 51.924,5.73954 52.0741,5.57638 52.232,5.42081 52.3899,5.26524 52.5553,5.11763 52.7206,4.97001 52.8931,4.83072 53.0655,4.69143 53.2446,4.5608 53.4237,4.43017 53.609,4.30851 53.7943,4.18685 53.9853,4.07446 54.1764,3.96207 54.3728,3.85923 54.5691,3.75638 54.7703,3.66333 54.9715,3.57027 55.1771,3.48724 55.3826,3.4042 55.5919,3.33138 55.8013,3.25856 56.014,3.19614 q 0.2127,-0.06243 0.4282,-0.1143 0.2155,-0.05188 0.4333,-0.09308 0.2178,-0.0412 0.4374,-0.07164 0.2196,-0.03043 0.4404,-0.05001 0.2208,-0.01959 0.4423,-0.02828 0.2215,-0.00869 0.4431,-0.00647 0.2217,0.00223 0.443,0.01536 0.2212,0.01313 0.4416,0.03714 0.2204,0.02401 0.4393,0.05884 0.2189,0.03483 0.4358,0.0804 0.217,0.04556 0.4314,0.10175 0.2144,0.05619 0.4258,0.12287 0.2114,0.06668 0.4193,0.14368 0.2079,0.07701 0.4117,0.16415 z"
       id="Rectangle-Copy-2"
       fill="#3fd66c"
       fillRule="evenodd"
       stroke="#ffffff"
       strokeWidth="6" />
    <path
       d="m 19.4469,8.88677 35.1407,4.97453 q 0.2185,0.0309 0.4352,0.0725 0.2167,0.0416 0.4311,0.0937 0.2144,0.0522 0.426,0.1148 0.2116,0.0626 0.4198,0.1355 0.2083,0.0729 0.4128,0.156 0.2044,0.083 0.4045,0.1759 0.2002,0.093 0.3955,0.1956 0.1953,0.1027 0.3854,0.2147 0.1901,0.1121 0.3744,0.2334 0.1844,0.1213 0.3625,0.2514 0.1782,0.1302 0.3498,0.2689 0.1716,0.1387 0.3362,0.2857 0.1646,0.147 0.3218,0.3018 0.1571,0.1549 0.3066,0.3173 0.1494,0.1624 0.2906,0.3319 0.1413,0.1695 0.2741,0.3457 0.1328,0.1762 0.2568,0.3588 0.124,0.1825 0.2389,0.3709 0.1149,0.1883 0.2204,0.3821 0.1056,0.1938 0.2015,0.3925 0.0959,0.1987 0.182,0.4019 0.086,0.2032 0.162,0.4104 0.076,0.2071 0.1418,0.4178 0.0657,0.2106 0.1211,0.4242 0.0553,0.2136 0.1001,0.4297 0.0449,0.216 0.079,0.434 0.0342,0.218 0.0577,0.4374 0.0234,0.2194 0.0361,0.4397 0.0127,0.2203 0.0145,0.441 0.0019,0.2206 -0.0071,0.4411 -0.0089,0.2205 -0.0286,0.4402 -0.0198,0.2198 -0.0503,0.4383 l -8.0305,57.554 q -0.0306,0.2191 -0.0719,0.4364 -0.0413,0.2174 -0.0932,0.4324 -0.0519,0.215 -0.1143,0.4273 -0.0625,0.2122 -0.1352,0.4211 -0.0728,0.2089 -0.1558,0.414 -0.0829,0.205 -0.1759,0.4058 -0.0929,0.2008 -0.1956,0.3967 -0.1026,0.1959 -0.2148,0.3866 -0.1122,0.1907 -0.2336,0.3756 -0.1214,0.1849 -0.2518,0.3636 -0.1303,0.1788 -0.2693,0.3509 -0.139,0.1721 -0.2863,0.3372 -0.1472,0.1651 -0.3024,0.3227 -0.1552,0.1577 -0.318,0.3075 -0.1627,0.1498 -0.3326,0.2915 -0.17,0.1416 -0.3466,0.2747 -0.1767,0.1332 -0.3597,0.2575 -0.183,0.1243 -0.3719,0.2394 -0.1889,0.1151 -0.3832,0.2209 -0.1943,0.1057 -0.3936,0.2018 -0.1993,0.096 -0.403,0.1822 -0.2038,0.0861 -0.4115,0.1622 -0.2077,0.076 -0.419,0.1417 -0.2112,0.0658 -0.4254,0.121 -0.2142,0.0553 -0.4308,0.1 -0.2167,0.0447 -0.4353,0.0787 -0.2186,0.034 -0.4386,0.0572 -0.22,0.0232 -0.4409,0.0356 -0.2208,0.0124 -0.442,0.0139 -0.2212,0.0015 -0.4423,-0.0079 -0.221,-0.0093 -0.4413,-0.0295 -0.2203,-0.0202 -0.4393,-0.0512 L 8.89345,84.2631 Q 8.67497,84.2322 8.45827,84.1906 8.24156,84.149 8.02716,84.0968 7.81276,84.0446 7.60117,83.982 7.38958,83.9194 7.18132,83.8465 6.97305,83.7736 6.76861,83.6906 6.56417,83.6075 6.36404,83.5146 6.16391,83.4217 5.96857,83.319 5.77324,83.2164 5.58317,83.1043 5.3931,82.9922 5.20876,82.8709 5.02441,82.7497 4.84622,82.6195 4.66804,82.4894 4.49645,82.3506 4.32486,82.2119 4.16027,82.0649 3.99569,81.918 3.8385,81.7631 3.68131,81.6082 3.53191,81.4458 3.3825,81.2835 3.24123,81.114 3.09996,80.9445 2.96716,80.7682 2.83437,80.592 2.71037,80.4095 2.58637,80.227 2.47146,80.0386 2.35656,79.8502 2.25102,79.6564 2.14549,79.4626 2.04958,79.2639 1.95366,79.0652 1.8676,78.862 1.78155,78.6588 1.70555,78.4517 1.62955,78.2445 1.56379,78.0339 1.49804,77.8232 1.44269,77.6096 1.38733,77.396 1.34251,77.18 1.29769,76.9639 1.26351,76.7459 1.22934,76.5279 1.20588,76.3085 1.18243,76.0891 1.16976,75.8688 1.15708,75.6485 1.15522,75.4279 1.15336,75.2072 1.16231,74.9868 1.17126,74.7663 1.19101,74.5465 1.21076,74.3267 1.24125,74.1082 l 8.03051,-57.554 q 0.03057,-0.2191 0.07187,-0.4364 0.0413,-0.2173 0.09322,-0.4324 0.05193,-0.215 0.11435,-0.4272 0.06243,-0.2123 0.13521,-0.4212 0.07278,-0.2089 0.15573,-0.414 0.08296,-0.205 0.17586,-0.4058 0.093,-0.2007 0.1956,-0.3967 0.1027,-0.1959 0.2149,-0.3866 0.1122,-0.1906 0.2336,-0.3756 0.1214,-0.1849 0.2518,-0.3636 0.1303,-0.1788 0.2693,-0.3509 0.139,-0.1721 0.2862,-0.3372 0.1473,-0.165 0.3025,-0.3227 0.1552,-0.1576 0.3179,-0.3075 0.1628,-0.1498 0.3327,-0.2914 0.1699,-0.1417 0.3466,-0.2748 0.1767,-0.1331 0.3597,-0.2574 0.183,-0.1243 0.3719,-0.2395 Q 13.6895,9.99818 13.8839,9.89245 14.0782,9.78671 14.2774,9.69066 14.4767,9.5946 14.6805,9.50845 14.8842,9.4223 15.092,9.34626 15.2997,9.27023 15.5109,9.20449 15.7222,9.13875 15.9364,9.08347 16.1506,9.02819 16.3672,8.9835 16.5839,8.93881 16.8025,8.90482 17.021,8.87082 17.241,8.84761 17.461,8.8244 17.6819,8.81202 17.9028,8.79965 18.124,8.79814 q 0.2212,-0.00151 0.4422,0.00785 0.221,0.00936 0.4413,0.02957 0.2203,0.0202 0.4394,0.05121 z"
       id="Rectangle-Copy"
       fill="#ff7340"
       fillRule="evenodd"
       stroke="#ffffff"
       strokeWidth="6" />
    <path
       d="m 31.1796,28.7315 34.8363,6.8205 q 0.2164,0.0424 0.4305,0.0953 0.2141,0.053 0.4254,0.1163 0.2113,0.0634 0.4192,0.137 0.2079,0.0736 0.4119,0.1574 0.2041,0.0837 0.4038,0.1773 0.1997,0.0936 0.3946,0.1969 0.1948,0.1033 0.3844,0.216 0.1896,0.1127 0.3735,0.2346 0.1838,0.1218 0.3614,0.2525 0.1777,0.1307 0.3487,0.27 0.171,0.1393 0.335,0.2867 0.164,0.1475 0.3206,0.3028 0.1566,0.1554 0.3054,0.3182 0.1488,0.1628 0.2894,0.3327 0.1407,0.1699 0.2728,0.3465 0.1321,0.1766 0.2555,0.3594 0.1233,0.1829 0.2375,0.3716 0.1143,0.1886 0.2191,0.3827 0.1049,0.194 0.2001,0.393 0.0952,0.1989 0.1806,0.4023 0.0853,0.2033 0.1606,0.4107 0.0753,0.2073 0.1404,0.418 0.065,0.2108 0.1197,0.4244 0.0546,0.2137 0.0987,0.4298 0.0441,0.2161 0.0776,0.4341 0.0335,0.218 0.0563,0.4374 0.0227,0.2194 0.0347,0.4396 0.012,0.2202 0.0132,0.4408 0.0012,0.2205 -0.0085,0.4409 -0.0096,0.2203 -0.03,0.4399 -0.0204,0.2197 -0.0515,0.438 -0.0311,0.2184 -0.0729,0.4349 L 62.114,103.139 q -0.0419,0.218 -0.0945,0.433 -0.0526,0.215 -0.1156,0.427 -0.0631,0.212 -0.1365,0.421 -0.0734,0.208 -0.157,0.413 -0.0836,0.205 -0.1772,0.406 -0.0936,0.2 -0.1969,0.396 -0.1033,0.196 -0.2161,0.386 -0.1128,0.191 -0.2348,0.375 -0.1221,0.185 -0.253,0.363 -0.131,0.179 -0.2705,0.351 -0.1396,0.171 -0.2874,0.336 -0.1479,0.165 -0.3037,0.322 -0.1557,0.157 -0.319,0.307 -0.1633,0.149 -0.3337,0.29 -0.1705,0.141 -0.3477,0.274 -0.1771,0.133 -0.3606,0.256 -0.1835,0.124 -0.3728,0.239 -0.1894,0.114 -0.3841,0.219 -0.1948,0.106 -0.3945,0.201 -0.1996,0.095 -0.4038,0.181 -0.2041,0.085 -0.4122,0.161 -0.2081,0.075 -0.4196,0.14 -0.2115,0.065 -0.426,0.12 -0.2145,0.055 -0.4314,0.098 -0.2169,0.044 -0.4357,0.078 -0.2188,0.033 -0.439,0.055 -0.2202,0.023 -0.4412,0.035 -0.221,0.011 -0.4423,0.012 -0.2213,0.001 -0.4424,-0.01 -0.2211,-0.01 -0.4414,-0.031 -0.2204,-0.021 -0.4394,-0.052 -0.219,-0.032 -0.4362,-0.075 l -34.8363,-6.82 q -0.2164,-0.043 -0.4305,-0.096 -0.2141,-0.053 -0.4254,-0.116 -0.2113,-0.063 -0.4192,-0.137 -0.2079,-0.074 -0.4119,-0.157 -0.2041,-0.084 -0.4038,-0.178 -0.1997,-0.093 -0.3946,-0.196 -0.1948,-0.104 -0.3844,-0.216 -0.1896,-0.113 -0.3734,-0.235 -0.1839,-0.122 -0.3615,-0.253 -0.1777,-0.13 -0.3487,-0.27 -0.171,-0.139 -0.335,-0.286 -0.164,-0.148 -0.3206,-0.303 -0.1566,-0.155 -0.3054,-0.318 -0.1488,-0.163 -0.2894,-0.333 -0.1406,-0.17 -0.2728,-0.346 -0.1321,-0.1771 -0.2555,-0.3599 -0.1233,-0.1829 -0.2375,-0.3715 -0.1143,-0.1887 -0.2191,-0.3828 -0.1049,-0.194 -0.2001,-0.393 Q 10.2275,98.2999 10.1421,98.0965 10.0568,97.8932 9.98149,97.6859 9.9062,97.4786 9.84115,97.2678 9.7761,97.0571 9.72145,96.8434 9.6668,96.6297 9.62268,96.4136 9.57856,96.1975 9.54508,95.9795 9.5116,95.7615 9.48884,95.5421 9.46608,95.3227 9.4541,95.1025 9.44211,94.8823 9.44093,94.6617 9.43974,94.4412 9.44936,94.2208 9.45898,94.0005 9.47938,93.7809 9.49978,93.5613 9.53092,93.3429 9.56205,93.1246 9.60385,92.908 L 20.6134,35.8584 q 0.0419,-0.2173 0.0945,-0.4323 0.0526,-0.2149 0.1156,-0.4271 0.0631,-0.2121 0.1365,-0.4209 0.0735,-0.2088 0.1571,-0.4137 0.0836,-0.2049 0.1771,-0.4055 0.0936,-0.2006 0.1969,-0.3963 0.1033,-0.1957 0.2161,-0.3861 0.1128,-0.1904 0.2349,-0.3751 0.122,-0.1846 0.2529,-0.363 0.131,-0.1784 0.2706,-0.3502 0.1395,-0.1718 0.2874,-0.3365 0.1478,-0.1647 0.3036,-0.3219 0.1557,-0.1572 0.319,-0.3066 0.1633,-0.1494 0.3338,-0.2906 0.1704,-0.1411 0.3476,-0.2738 0.1772,-0.1326 0.3607,-0.2563 0.1834,-0.1238 0.3728,-0.2384 0.1893,-0.1146 0.3841,-0.2197 0.1947,-0.1052 0.3944,-0.2006 0.1997,-0.0955 0.4038,-0.181 0.2041,-0.0855 0.4122,-0.1609 0.2081,-0.0754 0.4196,-0.1404 0.2116,-0.0651 0.4261,-0.1197 0.2144,-0.0546 0.4313,-0.0985 0.217,-0.044 0.4358,-0.0773 0.2188,-0.0332 0.4389,-0.0557 0.2202,-0.0225 0.4412,-0.0341 0.221,-0.0116 0.4424,-0.0123 0.2213,-8e-4 0.4424,0.0094 0.221,0.0101 0.4414,0.0311 0.2203,0.021 0.4393,0.0528 0.219,0.0318 0.4362,0.0743 z"
       id="Rectangle"
       fill="#00bcd4"
       fillRule="evenodd"
       stroke="#ffffff"
       strokeWidth="6" />
  </g>
</svg>
